<svg width="877" height="412" viewBox="0 0 877 412" version="1.1" xmlns="http://www.w3.org/2000/svg" xmlns:xlink="http://www.w3.org/1999/xlink">
<title>card</title>
<desc>Created using Figma</desc>
<g id="Canvas" transform="matrix(0.5 0 0 0.5 2125.5 -172.5)">
<g id="card">
<g id="Rectangle 6">
<use xlink:href="#path0_fill" transform="translate(-4251 345)" fill="#FFFFFF"/>
</g>
<g id="tel. 730 907 507">
<use xlink:href="#path1_fill" transform="translate(-2959 1013)"/>
</g>
<g id="Urszula Kazmierczyk">
<use xlink:href="#path2_fill" transform="translate(-3314.55 690)"/>
</g>
<g id="architecture lovers manager">
<use xlink:href="#path3_fill" transform="translate(-3395 785.388)" fill="#A0A0A0"/>
</g>
<g id="Group">
<g id="ER">
<use xlink:href="#path4_fill" transform="translate(-3946.9 620.259)"/>
</g>
<g id="LO">
<use xlink:href="#path5_fill" transform="translate(-4128 620.259)"/>
</g>
<g id="Polygon">
<mask id="mask0_outline_ins">
<use xlink:href="#path6_fill" fill="white" transform="matrix(-0.99999 -0.00442456 0.00442999 -0.99999 -3946.81 678.313)"/>
</mask>
<g mask="url(#mask0_outline_ins)">
<use xlink:href="#path7_stroke_2x" transform="matrix(-0.99999 -0.00442456 0.00442999 -0.99999 -3946.81 678.313)"/>
</g>
</g>
<g id="Group">
<g id="RCHITECTURE">
<use xlink:href="#path8_fill" transform="translate(-3946.9 470)"/>
</g>
<g id="Polygon">
<mask id="mask1_outline_ins">
<use xlink:href="#path9_fill" fill="white" transform="translate(-4049.41 480.245)"/>
</mask>
<g mask="url(#mask1_outline_ins)">
<use xlink:href="#path10_stroke_2x" transform="translate(-4049.41 480.245)"/>
</g>
</g>
</g>
</g>
<g id="architecturelover.com">
<use xlink:href="#path11_fill" transform="translate(-4098 1013)"/>
</g>
</g>
</g>
<defs>
<path id="path0_fill" d="M 0 0L 1753 0L 1753 824L 0 824L 0 0Z"/>
<path id="path1_fill" d="M 7.18066 11.4663L 7.18066 17.2822L 11.8838 17.2822L 11.8838 19.3398L 7.18066 19.3398L 7.18066 34.478C 7.18066 35.7378 7.40462 36.6756 7.85254 37.2915C 8.31445 37.9074 9.07731 38.2153 10.1411 38.2153C 10.561 38.2153 11.2399 38.1453 12.1777 38.0054L 12.2827 40.063C 11.6248 40.3009 10.729 40.4199 9.59521 40.4199C 7.87354 40.4199 6.62077 39.923 5.83691 38.9292C 5.05306 37.9214 4.66113 36.4447 4.66113 34.499L 4.66113 19.3398L 0.48291 19.3398L 0.48291 17.2822L 4.66113 17.2822L 4.66113 11.4663L 7.18066 11.4663ZM 25.8882 40.4199C 23.9565 40.4199 22.2069 39.944 20.6392 38.9922C 19.0854 38.0404 17.8747 36.7176 17.0068 35.0239C 16.139 33.3162 15.7051 31.4056 15.7051 29.292L 15.7051 28.3892C 15.7051 26.2056 16.125 24.2389 16.9648 22.4893C 17.8187 20.7396 19.0015 19.3678 20.5132 18.374C 22.0249 17.3662 23.6626 16.8623 25.4263 16.8623C 28.1838 16.8623 30.3673 17.8071 31.9771 19.6968C 33.6007 21.5724 34.4126 24.141 34.4126 27.4023L 34.4126 28.8091L 18.2036 28.8091L 18.2036 29.292C 18.2036 31.8675 18.9385 34.0161 20.4082 35.7378C 21.8919 37.4455 23.7536 38.2993 25.9932 38.2993C 27.3369 38.2993 28.5197 38.0544 29.5415 37.5645C 30.5773 37.0745 31.5151 36.2907 32.355 35.2129L 33.9297 36.4097C 32.082 39.0832 29.4015 40.4199 25.8882 40.4199ZM 25.4263 19.0039C 23.5366 19.0039 21.9409 19.6968 20.6392 21.0825C 19.3514 22.4683 18.5675 24.3299 18.2876 26.6675L 31.9141 26.6675L 31.9141 26.3945C 31.8441 24.2109 31.2212 22.4333 30.0454 21.0615C 28.8696 19.6898 27.3299 19.0039 25.4263 19.0039ZM 42.1182 40L 39.5986 40L 39.5986 7.75L 42.1182 7.75L 42.1182 40ZM 48.7319 38.4883C 48.7319 37.9984 48.8859 37.5854 49.1938 37.2495C 49.5158 36.8996 49.9567 36.7246 50.5166 36.7246C 51.0765 36.7246 51.5174 36.8996 51.8394 37.2495C 52.1613 37.5854 52.3223 37.9984 52.3223 38.4883C 52.3223 38.9782 52.1613 39.3841 51.8394 39.7061C 51.5174 40.014 51.0765 40.168 50.5166 40.168C 49.9567 40.168 49.5158 40.014 49.1938 39.7061C 48.8859 39.3841 48.7319 38.9782 48.7319 38.4883ZM 88.1416 10.8784L 75.082 40L 72.4575 40L 85.4331 11.5713L 68.0483 11.5713L 68.0483 9.42969L 88.1416 9.42969L 88.1416 10.8784ZM 98.7446 23.3501L 101.348 23.3501C 102.79 23.3501 104.05 23.0981 105.127 22.5942C 106.205 22.0763 107.024 21.3765 107.584 20.4946C 108.158 19.5988 108.445 18.57 108.445 17.4082C 108.445 15.4486 107.892 13.9159 106.786 12.8101C 105.68 11.7043 104.092 11.1514 102.02 11.1514C 100.06 11.1514 98.4507 11.7323 97.1909 12.894C 95.9451 14.0418 95.3223 15.5605 95.3223 17.4502L 92.8027 17.4502C 92.8027 15.8685 93.2017 14.4268 93.9995 13.125C 94.7974 11.8092 95.9032 10.7944 97.3169 10.0806C 98.7306 9.3667 100.298 9.00977 102.02 9.00977C 104.792 9.00977 106.975 9.76562 108.571 11.2773C 110.167 12.7891 110.964 14.8607 110.964 17.4922C 110.964 18.9619 110.495 20.3197 109.558 21.5654C 108.634 22.7972 107.36 23.721 105.736 24.3369C 107.64 24.8688 109.082 25.7856 110.062 27.0874C 111.041 28.3752 111.531 29.9149 111.531 31.7065C 111.531 34.3241 110.677 36.4307 108.97 38.0264C 107.262 39.6221 104.98 40.4199 102.125 40.4199C 100.305 40.4199 98.6326 40.056 97.1069 39.3281C 95.5952 38.6003 94.4194 37.5854 93.5796 36.2837C 92.7537 34.9679 92.3408 33.4422 92.3408 31.7065L 94.8604 31.7065C 94.8604 33.6522 95.5392 35.2409 96.897 36.4727C 98.2547 37.6904 99.9974 38.2993 102.125 38.2993C 104.295 38.2993 105.981 37.7464 107.185 36.6406C 108.403 35.5208 109.012 33.9041 109.012 31.7905C 109.012 29.7469 108.354 28.1862 107.038 27.1084C 105.736 26.0306 103.812 25.4917 101.264 25.4917L 98.7446 25.4917L 98.7446 23.3501ZM 135.446 27.2554C 135.446 31.5666 134.655 34.842 133.073 37.0815C 131.492 39.3071 129.161 40.4199 126.082 40.4199C 123.058 40.4199 120.742 39.3281 119.132 37.1445C 117.522 34.9469 116.696 31.7555 116.654 27.5703L 116.654 22.0903C 116.654 17.7931 117.452 14.5387 119.048 12.3271C 120.644 10.1156 122.974 9.00977 126.04 9.00977C 129.063 9.00977 131.373 10.0806 132.968 12.2222C 134.564 14.3498 135.39 17.4922 135.446 21.6494L 135.446 27.2554ZM 132.926 21.7754C 132.926 18.276 132.352 15.6305 131.205 13.8389C 130.071 12.0472 128.349 11.1514 126.04 11.1514C 123.772 11.1514 122.064 12.0262 120.917 13.7759C 119.769 15.5256 119.181 18.1081 119.153 21.5234L 119.153 27.5283C 119.153 31.0137 119.741 33.6802 120.917 35.5278C 122.106 37.3755 123.828 38.2993 126.082 38.2993C 128.321 38.2993 130.015 37.3965 131.163 35.5908C 132.324 33.7852 132.912 31.1396 132.926 27.6543L 132.926 21.7754ZM 167.003 25.8486C 166.107 27.1644 164.994 28.1862 163.665 28.9141C 162.335 29.6279 160.893 29.9849 159.339 29.9849C 157.604 29.9849 156.071 29.5369 154.741 28.6411C 153.411 27.7453 152.383 26.5065 151.655 24.9248C 150.927 23.3431 150.563 21.6144 150.563 19.7388C 150.563 17.7231 150.948 15.8895 151.718 14.2378C 152.502 12.5861 153.586 11.3053 154.972 10.3955C 156.372 9.47168 157.982 9.00977 159.801 9.00977C 162.867 9.00977 165.253 10.0876 166.961 12.2432C 168.669 14.3848 169.522 17.4292 169.522 21.3765L 169.522 23.644C 169.522 29.159 168.347 33.3022 165.995 36.0737C 163.644 38.8452 160.053 40.231 155.224 40.231L 154.762 40.231L 154.783 38.0474L 155.665 38.0474C 159.318 37.9914 162.097 36.9556 164 34.9399C 165.904 32.9243 166.905 29.8939 167.003 25.8486ZM 159.654 27.8223C 161.334 27.8223 162.839 27.3254 164.168 26.3315C 165.512 25.3237 166.464 24.022 167.024 22.4263L 167.024 20.9775C 167.024 17.8701 166.373 15.4626 165.071 13.7549C 163.784 12.0332 162.041 11.1724 159.843 11.1724C 157.856 11.1724 156.225 11.9772 154.951 13.5869C 153.677 15.1826 153.041 17.1982 153.041 19.6338C 153.041 21.9714 153.649 23.924 154.867 25.4917C 156.099 27.0454 157.695 27.8223 159.654 27.8223ZM 193.605 27.2554C 193.605 31.5666 192.814 34.842 191.232 37.0815C 189.651 39.3071 187.32 40.4199 184.241 40.4199C 181.217 40.4199 178.901 39.3281 177.291 37.1445C 175.681 34.9469 174.855 31.7555 174.813 27.5703L 174.813 22.0903C 174.813 17.7931 175.611 14.5387 177.207 12.3271C 178.803 10.1156 181.133 9.00977 184.199 9.00977C 187.222 9.00977 189.532 10.0806 191.127 12.2222C 192.723 14.3498 193.549 17.4922 193.605 21.6494L 193.605 27.2554ZM 191.085 21.7754C 191.085 18.276 190.512 15.6305 189.364 13.8389C 188.23 12.0472 186.508 11.1514 184.199 11.1514C 181.931 11.1514 180.223 12.0262 179.076 13.7759C 177.928 15.5256 177.34 18.1081 177.312 21.5234L 177.312 27.5283C 177.312 31.0137 177.9 33.6802 179.076 35.5278C 180.265 37.3755 181.987 38.2993 184.241 38.2993C 186.48 38.2993 188.174 37.3965 189.322 35.5908C 190.484 33.7852 191.071 31.1396 191.085 27.6543L 191.085 21.7754ZM 217.855 10.8784L 204.796 40L 202.171 40L 215.147 11.5713L 197.762 11.5713L 197.762 9.42969L 217.855 9.42969L 217.855 10.8784ZM 235.03 24.3369L 236.521 9.42969L 251.806 9.42969L 251.806 11.7603L 238.684 11.7603L 237.613 22.0903C 239.25 20.9705 241.168 20.4106 243.366 20.4106C 246.123 20.4106 248.321 21.3065 249.958 23.0981C 251.596 24.8898 252.415 27.2764 252.415 30.2578C 252.415 33.4772 251.617 35.9757 250.021 37.7534C 248.426 39.5311 246.179 40.4199 243.282 40.4199C 240.622 40.4199 238.467 39.6781 236.815 38.1943C 235.163 36.7106 234.218 34.632 233.98 31.9585L 236.395 31.9585C 236.633 34.0441 237.34 35.6258 238.516 36.7036C 239.691 37.7674 241.28 38.2993 243.282 38.2993C 245.465 38.2993 247.11 37.6064 248.216 36.2207C 249.336 34.835 249.896 32.8613 249.896 30.2998C 249.896 28.0602 249.273 26.2336 248.027 24.8198C 246.781 23.4061 245.08 22.6992 242.925 22.6992C 241.735 22.6992 240.699 22.8532 239.817 23.1611C 238.936 23.4551 238.005 24.036 237.025 24.9038L 235.03 24.3369ZM 275.616 27.2554C 275.616 31.5666 274.825 34.842 273.243 37.0815C 271.661 39.3071 269.331 40.4199 266.251 40.4199C 263.228 40.4199 260.911 39.3281 259.302 37.1445C 257.692 34.9469 256.866 31.7555 256.824 27.5703L 256.824 22.0903C 256.824 17.7931 257.622 14.5387 259.218 12.3271C 260.813 10.1156 263.144 9.00977 266.209 9.00977C 269.233 9.00977 271.542 10.0806 273.138 12.2222C 274.734 14.3498 275.56 17.4922 275.616 21.6494L 275.616 27.2554ZM 273.096 21.7754C 273.096 18.276 272.522 15.6305 271.375 13.8389C 270.241 12.0472 268.519 11.1514 266.209 11.1514C 263.942 11.1514 262.234 12.0262 261.086 13.7759C 259.939 15.5256 259.351 18.1081 259.323 21.5234L 259.323 27.5283C 259.323 31.0137 259.911 33.6802 261.086 35.5278C 262.276 37.3755 263.998 38.2993 266.251 38.2993C 268.491 38.2993 270.185 37.3965 271.333 35.5908C 272.494 33.7852 273.082 31.1396 273.096 27.6543L 273.096 21.7754ZM 299.866 10.8784L 286.807 40L 284.182 40L 297.158 11.5713L 279.773 11.5713L 279.773 9.42969L 299.866 9.42969L 299.866 10.8784Z"/>
<path id="path2_fill" d="M 34.6377 12.5127L 34.6377 41.5184C 34.6182 44.3782 33.986 46.8683 32.7409 48.9887C 31.4959 51.1092 29.7353 52.7433 27.4592 53.8911C 25.2025 55.0195 22.6054 55.5836 19.6679 55.5836C 15.1935 55.5836 11.6043 54.3677 8.90016 51.936C 6.21552 49.4848 4.82457 46.0998 4.7273 41.7811L 4.7273 12.5127L 8.28736 12.5127L 8.28736 41.2558C 8.28736 44.8353 9.30869 47.6172 11.3514 49.6015C 13.394 51.5664 16.1662 52.5488 19.6679 52.5488C 23.1696 52.5488 25.9321 51.5567 27.9553 49.5724C 29.9979 47.5881 31.0193 44.8256 31.0193 41.285L 31.0193 12.5127L 34.6377 12.5127ZM 64.3963 26.4028C 63.6571 26.2666 62.8692 26.1985 62.0327 26.1985C 59.8538 26.1985 58.0057 26.8113 56.4883 28.0369C 54.9904 29.243 53.9204 31.0036 53.2784 33.3186L 53.2784 55L 49.8059 55L 49.8059 23.4263L 53.2201 23.4263L 53.2784 28.4454C 55.1265 24.7103 58.0933 22.8427 62.1786 22.8427C 63.1513 22.8427 63.9197 22.9691 64.4839 23.222L 64.3963 26.4028ZM 94.8261 46.9753C 94.8261 45.2439 94.1258 43.8529 92.7251 42.8024C 91.3439 41.7519 89.2526 40.9348 86.4512 40.3512C 83.6499 39.7481 81.471 39.0673 79.9147 38.3085C 78.3778 37.5304 77.2301 36.5869 76.4714 35.478C 75.7321 34.3691 75.3625 33.0268 75.3625 31.451C 75.3625 28.9609 76.4033 26.9086 78.4848 25.2939C 80.5664 23.6598 83.2316 22.8427 86.4804 22.8427C 90.0016 22.8427 92.8224 23.7181 94.9429 25.469C 97.0828 27.2004 98.1527 29.4667 98.1527 32.2681L 94.651 32.2681C 94.651 30.42 93.8729 28.8831 92.3166 27.6575C 90.7797 26.4319 88.8343 25.8191 86.4804 25.8191C 84.1848 25.8191 82.3367 26.3347 80.936 27.3657C 79.5548 28.3773 78.8642 29.7002 78.8642 31.3343C 78.8642 32.9101 79.4381 34.1357 80.5859 35.0111C 81.7531 35.8671 83.8639 36.655 86.9181 37.3748C 89.9918 38.0946 92.2874 38.863 93.8048 39.68C 95.3417 40.4971 96.4797 41.4795 97.219 42.6273C 97.9582 43.7751 98.3278 45.1661 98.3278 46.8002C 98.3278 49.4654 97.2481 51.5956 95.0888 53.1908C 92.9488 54.786 90.1475 55.5836 86.6847 55.5836C 83.0079 55.5836 80.0217 54.6985 77.7261 52.9282C 75.45 51.1384 74.312 48.8817 74.312 46.1582L 77.8137 46.1582C 77.9499 48.2009 78.8058 49.7961 80.3816 50.9439C 81.9768 52.0722 84.0778 52.6364 86.6847 52.6364C 89.1164 52.6364 91.0813 52.1014 92.5792 51.0314C 94.0772 49.9614 94.8261 48.6094 94.8261 46.9753ZM 114.488 52.0527L 135.002 52.0527L 135.002 55L 110.169 55L 110.169 52.4321L 129.312 26.4319L 110.753 26.4319L 110.753 23.4263L 133.718 23.4263L 133.718 26.0234L 114.488 52.0527ZM 167.533 51.0022C 165.432 54.0565 162.076 55.5836 157.466 55.5836C 154.1 55.5836 151.542 54.6109 149.791 52.6655C 148.04 50.7007 147.145 47.8021 147.107 43.9696L 147.107 23.4263L 150.579 23.4263L 150.579 43.5319C 150.579 49.5432 153.011 52.5488 157.874 52.5488C 162.932 52.5488 166.132 50.4575 167.475 46.2749L 167.475 23.4263L 170.977 23.4263L 170.977 55L 167.592 55L 167.533 51.0022ZM 189.967 55L 186.466 55L 186.466 10.1782L 189.967 10.1782L 189.967 55ZM 225.387 55C 225.037 54.0079 224.813 52.5391 224.716 50.5937C 223.49 52.1889 221.924 53.4242 220.018 54.2997C 218.131 55.1556 216.127 55.5836 214.007 55.5836C 210.972 55.5836 208.511 54.7374 206.624 53.0449C 204.756 51.3524 203.822 49.2125 203.822 46.6251C 203.822 43.5514 205.097 41.1196 207.645 39.3299C 210.213 37.5401 213.783 36.6452 218.355 36.6452L 224.687 36.6452L 224.687 33.056C 224.687 30.7993 223.986 29.029 222.586 27.7451C 221.205 26.4417 219.181 25.79 216.516 25.79C 214.084 25.79 212.071 26.4125 210.476 27.6575C 208.88 28.9026 208.083 30.4005 208.083 32.1514L 204.581 32.1222C 204.581 29.6127 205.748 27.4435 208.083 25.6149C 210.417 23.7668 213.287 22.8427 216.691 22.8427C 220.212 22.8427 222.985 23.7278 225.008 25.4982C 227.05 27.249 228.101 29.7002 228.159 32.8517L 228.159 47.7923C 228.159 50.8466 228.48 53.1324 229.122 54.6498L 229.122 55L 225.387 55ZM 214.415 52.4904C 216.75 52.4904 218.831 51.9263 220.66 50.798C 222.508 49.6696 223.85 48.162 224.687 46.2749L 224.687 39.3299L 218.442 39.3299C 214.96 39.3688 212.236 40.0108 210.271 41.2558C 208.307 42.4814 207.324 44.1739 207.324 46.3333C 207.324 48.1036 207.976 49.5724 209.279 50.7396C 210.602 51.9068 212.314 52.4904 214.415 52.4904ZM 274.37 33.9022L 268.388 39.7968L 268.388 55L 264.799 55L 264.799 12.5127L 268.388 12.5127L 268.388 35.4196L 290.157 12.5127L 294.68 12.5127L 276.88 31.4219L 296.051 55L 291.674 55L 274.37 33.9022ZM 327.59 55C 327.24 54.0079 327.016 52.5391 326.919 50.5937C 325.693 52.1889 324.127 53.4242 322.221 54.2997C 320.334 55.1556 318.33 55.5836 316.21 55.5836C 313.175 55.5836 310.714 54.7374 308.827 53.0449C 306.959 51.3524 306.026 49.2125 306.026 46.6251C 306.026 43.5514 307.3 41.1196 309.848 39.3299C 312.416 37.5401 315.986 36.6452 320.558 36.6452L 326.89 36.6452L 326.89 33.056C 326.89 30.7993 326.189 29.029 324.789 27.7451C 323.408 26.4417 321.384 25.79 318.719 25.79C 316.287 25.79 314.274 26.4125 312.679 27.6575C 311.084 28.9026 310.286 30.4005 310.286 32.1514L 306.784 32.1222C 306.784 29.6127 307.951 27.4435 310.286 25.6149C 312.62 23.7668 315.49 22.8427 318.894 22.8427C 322.415 22.8427 325.188 23.7278 327.211 25.4982C 329.253 27.249 330.304 29.7002 330.362 32.8517L 330.362 47.7923C 330.362 50.8466 330.683 53.1324 331.325 54.6498L 331.325 55L 327.59 55ZM 316.618 52.4904C 318.953 52.4904 321.034 51.9263 322.863 50.798C 324.711 49.6696 326.053 48.162 326.89 46.2749L 326.89 39.3299L 320.645 39.3299C 317.163 39.3688 314.439 40.0108 312.474 41.2558C 310.51 42.4814 309.527 44.1739 309.527 46.3333C 309.527 48.1036 310.179 49.5724 311.482 50.7396C 312.805 51.9068 314.517 52.4904 316.618 52.4904ZM 347.982 52.0527L 368.496 52.0527L 368.496 55L 343.663 55L 343.663 52.4321L 362.806 26.4319L 344.247 26.4319L 344.247 23.4263L 367.212 23.4263L 367.212 26.0234L 347.982 52.0527ZM 383.898 23.4263L 384.014 28.5621C 385.182 26.6557 386.641 25.2258 388.391 24.2726C 390.142 23.3193 392.088 22.8427 394.228 22.8427C 399.208 22.8427 402.369 24.8854 403.711 28.9707C 404.84 27.0058 406.347 25.4982 408.234 24.4476C 410.121 23.3777 412.203 22.8427 414.479 22.8427C 421.249 22.8427 424.702 26.5389 424.838 33.9314L 424.838 55L 421.337 55L 421.337 34.194C 421.317 31.3732 420.704 29.2819 419.498 27.9202C 418.312 26.5584 416.366 25.8775 413.662 25.8775C 411.152 25.9164 409.032 26.7335 407.301 28.3287C 405.569 29.9045 404.606 31.8304 404.412 34.1065L 404.412 55L 400.91 55L 400.91 33.9314C 400.891 31.2273 400.249 29.2138 398.984 27.891C 397.739 26.5487 395.813 25.8775 393.206 25.8775C 391.008 25.8775 389.121 26.5098 387.545 27.7743C 385.969 29.0193 384.802 30.8772 384.043 33.3478L 384.043 55L 380.542 55L 380.542 23.4263L 383.898 23.4263ZM 443.596 55L 440.094 55L 440.094 23.4263L 443.596 23.4263L 443.596 55ZM 439.481 14.2927C 439.481 13.6313 439.695 13.0768 440.123 12.6294C 440.551 12.1625 441.135 11.9291 441.874 11.9291C 442.613 11.9291 443.197 12.1625 443.625 12.6294C 444.072 13.0768 444.296 13.6313 444.296 14.2927C 444.296 14.9541 444.072 15.5086 443.625 15.956C 443.197 16.4035 442.613 16.6272 441.874 16.6272C 441.135 16.6272 440.551 16.4035 440.123 15.956C 439.695 15.5086 439.481 14.9541 439.481 14.2927ZM 471.312 55.5836C 468.627 55.5836 466.195 54.9222 464.017 53.5993C 461.857 52.2765 460.174 50.4381 458.968 48.0841C 457.762 45.7108 457.159 43.0553 457.159 40.1178L 457.159 38.863C 457.159 35.8282 457.743 33.0949 458.91 30.6632C 460.097 28.2314 461.74 26.3249 463.841 24.9437C 465.942 23.543 468.219 22.8427 470.67 22.8427C 474.502 22.8427 477.537 24.1558 479.774 26.7821C 482.031 29.3889 483.159 32.9587 483.159 37.4915L 483.159 39.4466L 460.632 39.4466L 460.632 40.1178C 460.632 43.6973 461.653 46.6835 463.696 49.0763C 465.758 51.4497 468.345 52.6364 471.458 52.6364C 473.325 52.6364 474.969 52.2959 476.389 51.615C 477.829 50.9341 479.132 49.8447 480.299 48.3468L 482.488 50.0101C 479.92 53.7258 476.195 55.5836 471.312 55.5836ZM 470.67 25.8191C 468.043 25.8191 465.826 26.7821 464.017 28.708C 462.227 30.634 461.137 33.2214 460.748 36.4702L 479.687 36.4702L 479.687 36.0908C 479.589 33.056 478.724 30.5853 477.09 28.6789C 475.455 26.7724 473.315 25.8191 470.67 25.8191ZM 510.525 26.4028C 509.786 26.2666 508.998 26.1985 508.161 26.1985C 505.982 26.1985 504.134 26.8113 502.617 28.0369C 501.119 29.243 500.049 31.0036 499.407 33.3186L 499.407 55L 495.935 55L 495.935 23.4263L 499.349 23.4263L 499.407 28.4454C 501.255 24.7103 504.222 22.8427 508.307 22.8427C 509.28 22.8427 510.048 22.9691 510.613 23.222L 510.525 26.4028ZM 533.134 52.6364C 535.566 52.6364 537.599 51.9555 539.233 50.5937C 540.887 49.2125 541.782 47.4324 541.918 45.2536L 545.274 45.2536C 545.176 47.1795 544.573 48.9401 543.464 50.5353C 542.355 52.1111 540.877 53.3464 539.029 54.2413C 537.2 55.1362 535.235 55.5836 533.134 55.5836C 528.991 55.5836 525.703 54.144 523.271 51.2648C 520.859 48.3857 519.653 44.5143 519.653 39.6509L 519.653 38.6004C 519.653 35.4877 520.197 32.735 521.287 30.3422C 522.376 27.9493 523.933 26.1012 525.956 24.7978C 527.998 23.4944 530.382 22.8427 533.105 22.8427C 536.568 22.8427 539.418 23.8738 541.655 25.9359C 543.912 27.998 545.118 30.7118 545.274 34.0773L 541.918 34.0773C 541.762 31.6067 540.867 29.6127 539.233 28.0952C 537.618 26.5778 535.576 25.8191 533.105 25.8191C 529.954 25.8191 527.502 26.9572 525.752 29.2333C 524.02 31.5094 523.154 34.6998 523.154 38.8046L 523.154 39.826C 523.154 43.8529 524.02 46.9947 525.752 49.2514C 527.502 51.508 529.963 52.6364 533.134 52.6364ZM 560.558 52.0527L 581.073 52.0527L 581.073 55L 556.24 55L 556.24 52.4321L 575.382 26.4319L 556.823 26.4319L 556.823 23.4263L 579.789 23.4263L 579.789 26.0234L 560.558 52.0527ZM 603.303 49.9809L 612.524 23.4263L 616.288 23.4263L 602.807 60.3693L 602.106 62.0034C 600.375 65.8358 597.7 67.752 594.081 67.752C 593.245 67.752 592.35 67.6159 591.397 67.3435L 591.368 64.4546L 593.177 64.6297C 594.889 64.6297 596.27 64.2017 597.321 63.3457C 598.39 62.5092 599.295 61.0599 600.034 58.9978L 601.581 54.7374L 589.675 23.4263L 593.498 23.4263L 603.303 49.9809ZM 635.191 39.0964L 631.194 42.9483L 631.194 55L 627.692 55L 627.692 10.1782L 631.194 10.1782L 631.194 38.863L 634.491 35.3029L 646.572 23.4263L 650.978 23.4263L 637.584 36.7328L 652.146 55L 647.973 55L 635.191 39.0964Z"/>
<path id="path3_fill" d="M 20.2453 46C 19.9558 45.1796 19.7708 43.965 19.6903 42.3563C 18.6769 43.6754 17.3819 44.697 15.8054 45.4209C 14.2449 46.1287 12.588 46.4826 10.8345 46.4826C 8.32496 46.4826 6.28997 45.7828 4.72954 44.3833C 3.1852 42.9837 2.41303 41.2142 2.41303 39.0746C 2.41303 36.5329 3.46672 34.522 5.57411 33.042C 7.69757 31.562 10.6495 30.822 14.4299 30.822L 19.6662 30.822L 19.6662 27.854C 19.6662 25.9879 19.0871 24.524 17.9288 23.4623C 16.7867 22.3845 15.1136 21.8455 12.9097 21.8455C 10.8989 21.8455 9.23387 22.3603 7.91475 23.3899C 6.59562 24.4194 5.93606 25.6581 5.93606 27.106L 3.04042 27.0818C 3.04042 25.0066 4.00563 23.2129 5.93606 21.7008C 7.86649 20.1725 10.2393 19.4084 13.0545 19.4084C 15.9662 19.4084 18.2586 20.1403 19.9316 21.6042C 21.6208 23.0521 22.4895 25.079 22.5377 27.6851L 22.5377 40.0398C 22.5377 42.5655 22.8032 44.4557 23.334 45.7104L 23.334 46L 20.2453 46ZM 11.1723 43.9248C 13.1028 43.9248 14.8241 43.4583 16.3362 42.5252C 17.8645 41.5922 18.9745 40.3455 19.6662 38.785L 19.6662 33.042L 14.5023 33.042C 11.6228 33.0742 9.37061 33.6051 7.74583 34.6346C 6.12106 35.6481 5.30867 37.0476 5.30867 38.8333C 5.30867 40.2972 5.84758 41.5118 6.9254 42.477C 8.01931 43.4422 9.43496 43.9248 11.1723 43.9248ZM 47.2665 22.3523C 46.6552 22.2397 46.0037 22.1834 45.3119 22.1834C 43.5102 22.1834 41.9819 22.6901 40.7272 23.7036C 39.4885 24.701 38.6037 26.1568 38.0728 28.0712L 38.0728 46L 35.2013 46L 35.2013 19.891L 38.0246 19.891L 38.0728 24.0414C 39.6011 20.9527 42.0543 19.4084 45.4326 19.4084C 46.2369 19.4084 46.8724 19.5129 47.3389 19.7221L 47.2665 22.3523ZM 65.9627 44.0454C 67.9735 44.0454 69.6546 43.4824 71.0059 42.3563C 72.3733 41.2142 73.1133 39.7422 73.2259 37.9405L 76.0009 37.9405C 75.9204 39.5331 75.4217 40.9889 74.5048 42.3081C 73.5878 43.6111 72.3652 44.6326 70.837 45.3726C 69.3248 46.1126 67.7 46.4826 65.9627 46.4826C 62.5362 46.4826 59.8175 45.2922 57.8066 42.9113C 55.8118 40.5305 54.8144 37.3292 54.8144 33.3074L 54.8144 32.4388C 54.8144 29.8649 55.2649 27.5886 56.1657 25.6099C 57.0666 23.6312 58.3536 22.1029 60.0266 21.0251C 61.7157 19.9473 63.6864 19.4084 65.9385 19.4084C 68.802 19.4084 71.1587 20.261 73.0087 21.9662C 74.8748 23.6714 75.8722 25.9155 76.0009 28.6986L 73.2259 28.6986C 73.0972 26.6555 72.3572 25.0066 71.0059 23.7518C 69.6707 22.4971 67.9816 21.8697 65.9385 21.8697C 63.3325 21.8697 61.3055 22.8108 59.8577 24.6929C 58.426 26.5751 57.7101 29.2133 57.7101 32.6077L 57.7101 33.4522C 57.7101 36.7822 58.426 39.3802 59.8577 41.2463C 61.3055 43.1124 63.3405 44.0454 65.9627 44.0454ZM 89.6056 24.3068C 90.5547 22.7464 91.7692 21.5399 93.2492 20.6873C 94.7292 19.8347 96.346 19.4084 98.0994 19.4084C 100.899 19.4084 102.982 20.1966 104.349 21.7732C 105.717 23.3497 106.408 25.7144 106.424 28.8675L 106.424 46L 103.553 46L 103.553 28.8433C 103.537 26.5107 103.038 24.7734 102.057 23.6312C 101.092 22.489 99.5392 21.9179 97.3996 21.9179C 95.614 21.9179 94.0294 22.481 92.646 23.6071C 91.2786 24.7171 90.2651 26.2212 89.6056 28.1194L 89.6056 46L 86.734 46L 86.734 8.93582L 89.6056 8.93582L 89.6056 24.3068ZM 122.032 46L 119.136 46L 119.136 19.891L 122.032 19.891L 122.032 46ZM 118.63 12.3382C 118.63 11.7912 118.806 11.3328 119.16 10.9628C 119.514 10.5767 119.997 10.3836 120.608 10.3836C 121.219 10.3836 121.702 10.5767 122.056 10.9628C 122.426 11.3328 122.611 11.7912 122.611 12.3382C 122.611 12.8851 122.426 13.3436 122.056 13.7136C 121.702 14.0836 121.219 14.2686 120.608 14.2686C 119.997 14.2686 119.514 14.0836 119.16 13.7136C 118.806 13.3436 118.63 12.8851 118.63 12.3382ZM 139.328 13.2069L 139.328 19.891L 144.734 19.891L 144.734 22.2558L 139.328 22.2558L 139.328 39.6537C 139.328 41.1015 139.586 42.1794 140.101 42.8872C 140.632 43.595 141.508 43.9489 142.731 43.9489C 143.213 43.9489 143.994 43.8685 145.072 43.7076L 145.192 46.0724C 144.436 46.3459 143.407 46.4826 142.103 46.4826C 140.125 46.4826 138.685 45.9115 137.784 44.7694C 136.883 43.6111 136.433 41.9139 136.433 39.6779L 136.433 22.2558L 131.631 22.2558L 131.631 19.891L 136.433 19.891L 136.433 13.2069L 139.328 13.2069ZM 165.771 46.4826C 163.551 46.4826 161.54 45.9357 159.738 44.8417C 157.952 43.7478 156.561 42.2276 155.563 40.2811C 154.566 38.3185 154.067 36.1227 154.067 33.6935L 154.067 32.6559C 154.067 30.1464 154.55 27.8862 155.515 25.8753C 156.496 23.8644 157.856 22.2879 159.593 21.1458C 161.331 19.9875 163.213 19.4084 165.24 19.4084C 168.409 19.4084 170.918 20.4942 172.768 22.666C 174.634 24.8216 175.567 27.7736 175.567 31.5218L 175.567 33.1385L 156.939 33.1385L 156.939 33.6935C 156.939 36.6535 157.783 39.1229 159.472 41.1015C 161.178 43.0641 163.317 44.0454 165.891 44.0454C 167.435 44.0454 168.795 43.7639 169.969 43.2009C 171.16 42.6378 172.237 41.737 173.203 40.4983L 175.012 41.8737C 172.889 44.9463 169.808 46.4826 165.771 46.4826ZM 165.24 21.8697C 163.068 21.8697 161.234 22.666 159.738 24.2586C 158.258 25.8512 157.357 27.9907 157.035 30.6772L 172.696 30.6772L 172.696 30.3635C 172.615 27.854 171.9 25.811 170.548 24.2344C 169.197 22.6579 167.427 21.8697 165.24 21.8697ZM 195.784 44.0454C 197.795 44.0454 199.476 43.4824 200.827 42.3563C 202.194 41.2142 202.934 39.7422 203.047 37.9405L 205.822 37.9405C 205.742 39.5331 205.243 40.9889 204.326 42.3081C 203.409 43.6111 202.186 44.6326 200.658 45.3726C 199.146 46.1126 197.521 46.4826 195.784 46.4826C 192.357 46.4826 189.639 45.2922 187.628 42.9113C 185.633 40.5305 184.636 37.3292 184.636 33.3074L 184.636 32.4388C 184.636 29.8649 185.086 27.5886 185.987 25.6099C 186.888 23.6312 188.175 22.1029 189.848 21.0251C 191.537 19.9473 193.508 19.4084 195.76 19.4084C 198.623 19.4084 200.98 20.261 202.83 21.9662C 204.696 23.6714 205.693 25.9155 205.822 28.6986L 203.047 28.6986C 202.918 26.6555 202.178 25.0066 200.827 23.7518C 199.492 22.4971 197.803 21.8697 195.76 21.8697C 193.154 21.8697 191.127 22.8108 189.679 24.6929C 188.247 26.5751 187.531 29.2133 187.531 32.6077L 187.531 33.4522C 187.531 36.7822 188.247 39.3802 189.679 41.2463C 191.127 43.1124 193.162 44.0454 195.784 44.0454ZM 221.043 13.2069L 221.043 19.891L 226.449 19.891L 226.449 22.2558L 221.043 22.2558L 221.043 39.6537C 221.043 41.1015 221.301 42.1794 221.816 42.8872C 222.346 43.595 223.223 43.9489 224.446 43.9489C 224.928 43.9489 225.709 43.8685 226.786 43.7076L 226.907 46.0724C 226.151 46.3459 225.121 46.4826 223.818 46.4826C 221.84 46.4826 220.4 45.9115 219.499 44.7694C 218.598 43.6111 218.148 41.9139 218.148 39.6779L 218.148 22.2558L 213.346 22.2558L 213.346 19.891L 218.148 19.891L 218.148 13.2069L 221.043 13.2069ZM 254.17 42.6941C 252.432 45.2198 249.657 46.4826 245.845 46.4826C 243.062 46.4826 240.946 45.6783 239.498 44.0696C 238.05 42.4448 237.31 40.0479 237.278 36.8787L 237.278 19.891L 240.15 19.891L 240.15 36.5168C 240.15 41.4876 242.161 43.9731 246.182 43.9731C 250.365 43.9731 253.011 42.2437 254.121 38.785L 254.121 19.891L 257.017 19.891L 257.017 46L 254.218 46L 254.17 42.6941ZM 281.553 22.3523C 280.941 22.2397 280.29 22.1834 279.598 22.1834C 277.796 22.1834 276.268 22.6901 275.013 23.7036C 273.775 24.701 272.89 26.1568 272.359 28.0712L 272.359 46L 269.487 46L 269.487 19.891L 272.311 19.891L 272.359 24.0414C 273.887 20.9527 276.34 19.4084 279.719 19.4084C 280.523 19.4084 281.159 19.5129 281.625 19.7221L 281.553 22.3523ZM 300.707 46.4826C 298.487 46.4826 296.476 45.9357 294.675 44.8417C 292.889 43.7478 291.498 42.2276 290.5 40.2811C 289.503 38.3185 289.004 36.1227 289.004 33.6935L 289.004 32.6559C 289.004 30.1464 289.487 27.8862 290.452 25.8753C 291.433 23.8644 292.793 22.2879 294.53 21.1458C 296.267 19.9875 298.149 19.4084 300.176 19.4084C 303.346 19.4084 305.855 20.4942 307.705 22.666C 309.571 24.8216 310.504 27.7736 310.504 31.5218L 310.504 33.1385L 291.876 33.1385L 291.876 33.6935C 291.876 36.6535 292.72 39.1229 294.409 41.1015C 296.114 43.0641 298.254 44.0454 300.828 44.0454C 302.372 44.0454 303.732 43.7639 304.906 43.2009C 306.096 42.6378 307.174 41.737 308.139 40.4983L 309.949 41.8737C 307.826 44.9463 304.745 46.4826 300.707 46.4826ZM 300.176 21.8697C 298.005 21.8697 296.171 22.666 294.675 24.2586C 293.195 25.8512 292.294 27.9907 291.972 30.6772L 307.633 30.6772L 307.633 30.3635C 307.552 27.854 306.836 25.811 305.485 24.2344C 304.134 22.6579 302.364 21.8697 300.176 21.8697ZM 341.261 46L 338.365 46L 338.365 8.93582L 341.261 8.93582L 341.261 46ZM 352.477 32.5594C 352.477 30.0499 352.959 27.7896 353.924 25.7788C 354.906 23.7679 356.281 22.2075 358.051 21.0975C 359.836 19.9714 361.855 19.4084 364.107 19.4084C 367.582 19.4084 370.397 20.631 372.553 23.0762C 374.709 25.5053 375.786 28.7307 375.786 32.7525L 375.786 33.3557C 375.786 35.8813 375.296 38.1576 374.314 40.1846C 373.349 42.1955 371.982 43.7478 370.212 44.8417C 368.443 45.9357 366.424 46.4826 364.156 46.4826C 360.697 46.4826 357.882 45.268 355.71 42.8389C 353.554 40.3937 352.477 37.1603 352.477 33.1385L 352.477 32.5594ZM 355.372 33.3557C 355.372 36.4766 356.176 39.0424 357.785 41.0533C 359.41 43.0481 361.533 44.0454 364.156 44.0454C 366.762 44.0454 368.869 43.0481 370.478 41.0533C 372.103 39.0424 372.915 36.3961 372.915 33.1144L 372.915 32.5594C 372.915 30.5646 372.545 28.7388 371.805 27.0818C 371.065 25.4249 370.027 24.146 368.692 23.2451C 367.357 22.3282 365.829 21.8697 364.107 21.8697C 361.533 21.8697 359.434 22.8831 357.809 24.9101C 356.185 26.921 355.372 29.5592 355.372 32.8248L 355.372 33.3557ZM 394.458 42.0185L 402.397 19.891L 405.365 19.891L 395.617 46L 393.276 46L 383.479 19.891L 386.447 19.891L 394.458 42.0185ZM 424.834 46.4826C 422.614 46.4826 420.603 45.9357 418.801 44.8417C 417.015 43.7478 415.624 42.2276 414.627 40.2811C 413.629 38.3185 413.13 36.1227 413.13 33.6935L 413.13 32.6559C 413.13 30.1464 413.613 27.8862 414.578 25.8753C 415.56 23.8644 416.919 22.2879 418.656 21.1458C 420.394 19.9875 422.276 19.4084 424.303 19.4084C 427.472 19.4084 429.981 20.4942 431.831 22.666C 433.698 24.8216 434.631 27.7736 434.631 31.5218L 434.631 33.1385L 416.002 33.1385L 416.002 33.6935C 416.002 36.6535 416.847 39.1229 418.536 41.1015C 420.241 43.0641 422.38 44.0454 424.954 44.0454C 426.499 44.0454 427.858 43.7639 429.032 43.2009C 430.223 42.6378 431.301 41.737 432.266 40.4983L 434.076 41.8737C 431.952 44.9463 428.871 46.4826 424.834 46.4826ZM 424.303 21.8697C 422.131 21.8697 420.297 22.666 418.801 24.2586C 417.321 25.8512 416.42 27.9907 416.098 30.6772L 431.759 30.6772L 431.759 30.3635C 431.679 27.854 430.963 25.811 429.611 24.2344C 428.26 22.6579 426.491 21.8697 424.303 21.8697ZM 457.26 22.3523C 456.649 22.2397 455.997 22.1834 455.305 22.1834C 453.504 22.1834 451.975 22.6901 450.721 23.7036C 449.482 24.701 448.597 26.1568 448.066 28.0712L 448.066 46L 445.195 46L 445.195 19.891L 448.018 19.891L 448.066 24.0414C 449.595 20.9527 452.048 19.4084 455.426 19.4084C 456.23 19.4084 456.866 19.5129 457.332 19.7221L 457.26 22.3523ZM 482.423 39.3642C 482.423 37.9324 481.844 36.7822 480.686 35.9135C 479.544 35.0448 477.814 34.3692 475.498 33.8866C 473.181 33.3879 471.379 32.8248 470.093 32.1975C 468.822 31.554 467.873 30.7738 467.245 29.8568C 466.634 28.9399 466.328 27.8299 466.328 26.5268C 466.328 24.4677 467.189 22.7705 468.91 21.4353C 470.631 20.084 472.835 19.4084 475.522 19.4084C 478.434 19.4084 480.766 20.1323 482.52 21.5801C 484.289 23.0118 485.174 24.886 485.174 27.2025L 482.278 27.2025C 482.278 25.6742 481.635 24.4034 480.348 23.3899C 479.077 22.3764 477.468 21.8697 475.522 21.8697C 473.624 21.8697 472.095 22.296 470.937 23.1486C 469.795 23.9851 469.224 25.079 469.224 26.4303C 469.224 27.7333 469.698 28.7468 470.648 29.4707C 471.613 30.1785 473.358 30.8301 475.884 31.4253C 478.426 32.0205 480.324 32.6559 481.579 33.3316C 482.849 34.0072 483.791 34.8196 484.402 35.7687C 485.013 36.7179 485.319 37.8681 485.319 39.2194C 485.319 41.4233 484.426 43.1848 482.64 44.5039C 480.871 45.823 478.554 46.4826 475.691 46.4826C 472.65 46.4826 470.181 45.7507 468.283 44.2867C 466.401 42.8068 465.46 40.9407 465.46 38.6885L 468.355 38.6885C 468.468 40.3776 469.176 41.6968 470.479 42.6459C 471.798 43.5789 473.535 44.0454 475.691 44.0454C 477.702 44.0454 479.326 43.6031 480.565 42.7183C 481.804 41.8335 482.423 40.7155 482.423 39.3642ZM 516.365 19.891L 516.461 24.1379C 517.427 22.5614 518.633 21.379 520.081 20.5908C 521.529 19.8025 523.137 19.4084 524.907 19.4084C 529.025 19.4084 531.639 21.0975 532.749 24.4757C 533.682 22.851 534.929 21.6042 536.49 20.7355C 538.05 19.8508 539.771 19.4084 541.653 19.4084C 547.252 19.4084 550.107 22.4649 550.22 28.5779L 550.22 46L 547.324 46L 547.324 28.7951C 547.308 26.4625 546.801 24.7331 545.804 23.6071C 544.823 22.481 543.214 21.9179 540.978 21.9179C 538.903 21.9501 537.149 22.6258 535.717 23.9449C 534.286 25.2479 533.489 26.8405 533.328 28.7227L 533.328 46L 530.433 46L 530.433 28.5779C 530.417 26.3418 529.886 24.6768 528.84 23.5829C 527.811 22.4729 526.218 21.9179 524.062 21.9179C 522.245 21.9179 520.684 22.4408 519.381 23.4864C 518.078 24.516 517.113 26.0523 516.485 28.0953L 516.485 46L 513.59 46L 513.59 19.891L 516.365 19.891ZM 578.978 46C 578.689 45.1796 578.504 43.965 578.423 42.3563C 577.41 43.6754 576.115 44.697 574.538 45.4209C 572.978 46.1287 571.321 46.4826 569.567 46.4826C 567.058 46.4826 565.023 45.7828 563.462 44.3833C 561.918 42.9837 561.146 41.2142 561.146 39.0746C 561.146 36.5329 562.2 34.522 564.307 33.042C 566.43 31.562 569.382 30.822 573.163 30.822L 578.399 30.822L 578.399 27.854C 578.399 25.9879 577.82 24.524 576.662 23.4623C 575.52 22.3845 573.846 21.8455 571.643 21.8455C 569.632 21.8455 567.967 22.3603 566.648 23.3899C 565.328 24.4194 564.669 25.6581 564.669 27.106L 561.773 27.0818C 561.773 25.0066 562.738 23.2129 564.669 21.7008C 566.599 20.1725 568.972 19.4084 571.787 19.4084C 574.699 19.4084 576.991 20.1403 578.664 21.6042C 580.354 23.0521 581.222 25.079 581.271 27.6851L 581.271 40.0398C 581.271 42.5655 581.536 44.4557 582.067 45.7104L 582.067 46L 578.978 46ZM 569.905 43.9248C 571.836 43.9248 573.557 43.4583 575.069 42.5252C 576.597 41.5922 577.707 40.3455 578.399 38.785L 578.399 33.042L 573.235 33.042C 570.356 33.0742 568.103 33.6051 566.479 34.6346C 564.854 35.6481 564.042 37.0476 564.042 38.8333C 564.042 40.2972 564.58 41.5118 565.658 42.477C 566.752 43.4422 568.168 43.9248 569.905 43.9248ZM 596.685 19.891L 596.782 24.3551C 597.763 22.7464 598.985 21.5238 600.449 20.6873C 601.913 19.8347 603.53 19.4084 605.3 19.4084C 608.099 19.4084 610.182 20.1966 611.549 21.7732C 612.917 23.3497 613.608 25.7144 613.625 28.8675L 613.625 46L 610.753 46L 610.753 28.8433C 610.737 26.5107 610.238 24.7734 609.257 23.6312C 608.292 22.489 606.739 21.9179 604.6 21.9179C 602.814 21.9179 601.23 22.481 599.846 23.6071C 598.479 24.7171 597.465 26.2212 596.806 28.1194L 596.806 46L 593.934 46L 593.934 19.891L 596.685 19.891ZM 642.528 46C 642.238 45.1796 642.053 43.965 641.973 42.3563C 640.959 43.6754 639.664 44.697 638.088 45.4209C 636.527 46.1287 634.87 46.4826 633.117 46.4826C 630.607 46.4826 628.572 45.7828 627.012 44.3833C 625.468 42.9837 624.696 41.2142 624.696 39.0746C 624.696 36.5329 625.749 34.522 627.857 33.042C 629.98 31.562 632.932 30.822 636.712 30.822L 641.949 30.822L 641.949 27.854C 641.949 25.9879 641.37 24.524 640.211 23.4623C 639.069 22.3845 637.396 21.8455 635.192 21.8455C 633.181 21.8455 631.516 22.3603 630.197 23.3899C 628.878 24.4194 628.219 25.6581 628.219 27.106L 625.323 27.0818C 625.323 25.0066 626.288 23.2129 628.219 21.7008C 630.149 20.1725 632.522 19.4084 635.337 19.4084C 638.249 19.4084 640.541 20.1403 642.214 21.6042C 643.903 23.0521 644.772 25.079 644.82 27.6851L 644.82 40.0398C 644.82 42.5655 645.086 44.4557 645.616 45.7104L 645.616 46L 642.528 46ZM 633.455 43.9248C 635.385 43.9248 637.107 43.4583 638.619 42.5252C 640.147 41.5922 641.257 40.3455 641.949 38.785L 641.949 33.042L 636.785 33.042C 633.905 33.0742 631.653 33.6051 630.028 34.6346C 628.404 35.6481 627.591 37.0476 627.591 38.8333C 627.591 40.2972 628.13 41.5118 629.208 42.477C 630.302 43.4422 631.717 43.9248 633.455 43.9248ZM 656.326 32.7042C 656.326 28.6181 657.226 25.3847 659.028 23.0038C 660.846 20.6069 663.307 19.4084 666.412 19.4084C 669.967 19.4084 672.67 20.824 674.52 23.6553L 674.665 19.891L 677.367 19.891L 677.367 45.4691C 677.367 48.8313 676.426 51.4937 674.544 53.4563C 672.662 55.4189 670.112 56.4002 666.895 56.4002C 665.077 56.4002 663.339 55.99 661.682 55.1695C 660.042 54.3652 658.747 53.2874 657.798 51.9361L 659.414 50.1987C 661.457 52.7082 663.886 53.963 666.702 53.963C 669.115 53.963 670.997 53.2471 672.348 51.8154C 673.699 50.3998 674.399 48.4291 674.447 45.9035L 674.447 42.6218C 672.597 45.1957 669.903 46.4826 666.364 46.4826C 663.339 46.4826 660.91 45.2761 659.076 42.8631C 657.243 40.45 656.326 37.1924 656.326 33.0903L 656.326 32.7042ZM 659.245 33.2109C 659.245 36.5409 659.913 39.1711 661.248 41.1015C 662.583 43.0159 664.466 43.9731 666.895 43.9731C 670.45 43.9731 672.967 42.3805 674.447 39.1952L 674.447 27.0577C 673.772 25.3847 672.799 24.1138 671.528 23.2451C 670.257 22.3603 668.729 21.9179 666.943 21.9179C 664.514 21.9179 662.624 22.8751 661.272 24.7894C 659.921 26.6877 659.245 29.4949 659.245 33.2109ZM 699.948 46.4826C 697.728 46.4826 695.718 45.9357 693.916 44.8417C 692.13 43.7478 690.739 42.2276 689.741 40.2811C 688.744 38.3185 688.245 36.1227 688.245 33.6935L 688.245 32.6559C 688.245 30.1464 688.728 27.8862 689.693 25.8753C 690.674 23.8644 692.034 22.2879 693.771 21.1458C 695.508 19.9875 697.391 19.4084 699.417 19.4084C 702.587 19.4084 705.096 20.4942 706.946 22.666C 708.812 24.8216 709.745 27.7736 709.745 31.5218L 709.745 33.1385L 691.117 33.1385L 691.117 33.6935C 691.117 36.6535 691.961 39.1229 693.65 41.1015C 695.356 43.0641 697.495 44.0454 700.069 44.0454C 701.613 44.0454 702.973 43.7639 704.147 43.2009C 705.337 42.6378 706.415 41.737 707.381 40.4983L 709.19 41.8737C 707.067 44.9463 703.986 46.4826 699.948 46.4826ZM 699.417 21.8697C 697.246 21.8697 695.412 22.666 693.916 24.2586C 692.436 25.8512 691.535 27.9907 691.213 30.6772L 706.874 30.6772L 706.874 30.3635C 706.793 27.854 706.077 25.811 704.726 24.2344C 703.375 22.6579 701.605 21.8697 699.417 21.8697ZM 732.375 22.3523C 731.763 22.2397 731.112 22.1834 730.42 22.1834C 728.618 22.1834 727.09 22.6901 725.835 23.7036C 724.597 24.701 723.712 26.1568 723.181 28.0712L 723.181 46L 720.31 46L 720.31 19.891L 723.133 19.891L 723.181 24.0414C 724.709 20.9527 727.163 19.4084 730.541 19.4084C 731.345 19.4084 731.981 19.5129 732.447 19.7221L 732.375 22.3523Z"/>
<path id="path4_fill" d="M 29.6633 36.0436L 9.21723 36.0436L 9.21723 53.8775L 32.7257 53.8775L 32.7257 57L 5.52434 57L 5.52434 13.2857L 32.5756 13.2857L 32.5756 16.4382L 9.21723 16.4382L 9.21723 32.9211L 29.6633 32.9211L 29.6633 36.0436ZM 69.1623 38.8057L 56.4623 38.8057L 56.4623 57L 52.7394 57L 52.7394 13.2857L 66.9405 13.2857C 71.6042 13.2857 75.247 14.4166 77.8691 16.6784C 80.4912 18.9401 81.8022 22.1026 81.8022 26.1658C 81.8022 28.968 80.9815 31.4399 79.3403 33.5816C 77.699 35.7233 75.4972 37.2045 72.7351 38.0251L 83.6637 56.6097L 83.6637 57L 79.7306 57L 69.1623 38.8057ZM 56.4623 35.6532L 67.7812 35.6532C 70.8836 35.6532 73.3756 34.7726 75.2571 33.0112C 77.1385 31.2498 78.0793 28.968 78.0793 26.1658C 78.0793 23.0834 77.0985 20.6915 75.137 18.9902C 73.1754 17.2888 70.4233 16.4382 66.8805 16.4382L 56.4623 16.4382L 56.4623 35.6532Z"/>
<path id="path5_fill" d="M 9.24726 53.8775L 30.8342 53.8775L 30.8342 57L 5.52434 57L 5.52434 13.2857L 9.24726 13.2857L 9.24726 53.8775ZM 80.5712 37.5147C 80.5712 41.5379 79.8707 45.0706 78.4696 48.113C 77.0885 51.1554 75.1069 53.4973 72.5249 55.1385C 69.9429 56.7798 66.9605 57.6005 63.5779 57.6005C 58.4739 57.6005 54.3506 55.779 51.2082 52.1362C 48.0657 48.4733 46.4945 43.5394 46.4945 37.3346L 46.4945 32.831C 46.4945 28.8479 47.195 25.3251 48.5961 22.2627C 50.0172 19.1803 52.0188 16.8185 54.6008 15.1772C 57.1829 13.5159 60.1552 12.6852 63.5178 12.6852C 66.8805 12.6852 69.8428 13.4959 72.4048 15.1171C 74.9868 16.7384 76.9784 19.0302 78.3795 21.9925C 79.7806 24.9549 80.5112 28.3875 80.5712 32.2906L 80.5712 37.5147ZM 76.8783 32.771C 76.8783 27.5069 75.6874 23.3836 73.3055 20.4013C 70.9237 17.4189 67.6611 15.9278 63.5178 15.9278C 59.4547 15.9278 56.2121 17.4289 53.7902 20.4313C 51.3883 23.4136 50.1874 27.5869 50.1874 32.9511L 50.1874 37.5147C 50.1874 42.6988 51.3883 46.812 53.7902 49.8544C 56.1921 52.8768 59.4547 54.388 63.5779 54.388C 67.7612 54.388 71.0237 52.8968 73.3656 49.9144C 75.7074 46.9121 76.8783 42.7388 76.8783 37.3946L 76.8783 32.771Z"/>
<path id="path6_fill" d="M 51.3009 0L 95.7288 88.0229L 6.87302 88.0229L 51.3009 0Z"/>
<path id="path7_stroke_2x" d="M 51.3009 0L 55.8753 -2.30883L 51.3009 -11.3718L 46.7265 -2.30883L 51.3009 0ZM 95.7288 88.0229L 95.7288 93.1469L 104.055 93.1469L 100.303 85.7141L 95.7288 88.0229ZM 6.87302 88.0229L 2.29865 85.7141L -1.45295 93.1469L 6.87302 93.1469L 6.87302 88.0229ZM 46.7265 2.30883L 91.1544 90.3317L 100.303 85.7141L 55.8753 -2.30883L 46.7265 2.30883ZM 95.7288 82.8989L 6.87302 82.8989L 6.87302 93.1469L 95.7288 93.1469L 95.7288 82.8989ZM 11.4474 90.3317L 55.8753 2.30883L 46.7265 -2.30883L 2.29865 85.7141L 11.4474 90.3317Z"/>
<path id="path8_fill" d="M 21.8572 38.8057L 9.15719 38.8057L 9.15719 57L 5.43426 57L 5.43426 13.2857L 19.6354 13.2857C 24.2991 13.2857 27.9419 14.4166 30.564 16.6784C 33.186 18.9401 34.4971 22.1026 34.4971 26.1658C 34.4971 28.968 33.6764 31.4399 32.0351 33.5816C 30.3938 35.7233 28.1921 37.2045 25.43 38.0251L 36.3585 56.6097L 36.3585 57L 32.4254 57L 21.8572 38.8057ZM 9.15719 35.6532L 20.4761 35.6532C 23.5785 35.6532 26.0705 34.7726 27.9519 33.0112C 29.8334 31.2498 30.7741 28.968 30.7741 26.1658C 30.7741 23.0834 29.7934 20.6915 27.8318 18.9902C 25.8703 17.2888 23.1181 16.4382 19.5754 16.4382L 9.15719 16.4382L 9.15719 35.6532ZM 87.8069 43.3693C 87.3065 47.9729 85.6552 51.4957 82.853 53.9376C 80.0708 56.3795 76.3579 57.6005 71.7143 57.6005C 68.4717 57.6005 65.5995 56.7898 63.0975 55.1686C 60.6156 53.5473 58.6941 51.2555 57.333 48.2932C 55.9719 45.3108 55.2814 41.9082 55.2614 38.0852L 55.2614 32.4107C 55.2614 28.5277 55.9419 25.085 57.303 22.0826C 58.664 19.0802 60.6156 16.7684 63.1576 15.1472C 65.7196 13.5059 68.6619 12.6852 71.9845 12.6852C 76.6682 12.6852 80.3611 13.9562 83.0632 16.4982C 85.7853 19.0202 87.3666 22.5129 87.8069 26.9764L 84.084 26.9764C 83.1633 19.5506 79.1301 15.8377 71.9845 15.8377C 68.0214 15.8377 64.8589 17.3189 62.497 20.2812C 60.1552 23.2435 58.9843 27.3367 58.9843 32.5608L 58.9843 37.905C 58.9843 42.949 60.1252 46.9721 62.407 49.9745C 64.7088 52.9768 67.8112 54.478 71.7143 54.478C 75.5773 54.478 78.4896 53.5573 80.4511 51.7159C 82.4127 49.8544 83.6236 47.0722 84.084 43.3693L 87.8069 43.3693ZM 141.477 57L 137.754 57L 137.754 36.0436L 112.774 36.0436L 112.774 57L 109.082 57L 109.082 13.2857L 112.774 13.2857L 112.774 32.9211L 137.754 32.9211L 137.754 13.2857L 141.477 13.2857L 141.477 57ZM 169.417 57L 165.724 57L 165.724 13.2857L 169.417 13.2857L 169.417 57ZM 222.366 16.4382L 207.385 16.4382L 207.385 57L 203.692 57L 203.692 16.4382L 188.74 16.4382L 188.74 13.2857L 222.366 13.2857L 222.366 16.4382ZM 265.889 36.0436L 245.443 36.0436L 245.443 53.8775L 268.951 53.8775L 268.951 57L 241.75 57L 241.75 13.2857L 268.801 13.2857L 268.801 16.4382L 245.443 16.4382L 245.443 32.9211L 265.889 32.9211L 265.889 36.0436ZM 320.009 43.3693C 319.509 47.9729 317.857 51.4957 315.055 53.9376C 312.273 56.3795 308.56 57.6005 303.916 57.6005C 300.674 57.6005 297.802 56.7898 295.3 55.1686C 292.818 53.5473 290.896 51.2555 289.535 48.2932C 288.174 45.3108 287.484 41.9082 287.464 38.0852L 287.464 32.4107C 287.464 28.5277 288.144 25.085 289.505 22.0826C 290.866 19.0802 292.818 16.7684 295.36 15.1472C 297.922 13.5059 300.864 12.6852 304.187 12.6852C 308.87 12.6852 312.563 13.9562 315.265 16.4982C 317.988 19.0202 319.569 22.5129 320.009 26.9764L 316.286 26.9764C 315.365 19.5506 311.332 15.8377 304.187 15.8377C 300.224 15.8377 297.061 17.3189 294.699 20.2812C 292.357 23.2435 291.186 27.3367 291.186 32.5608L 291.186 37.905C 291.186 42.949 292.327 46.9721 294.609 49.9745C 296.911 52.9768 300.013 54.478 303.916 54.478C 307.78 54.478 310.692 53.5573 312.653 51.7159C 314.615 49.8544 315.826 47.0722 316.286 43.3693L 320.009 43.3693ZM 370.046 16.4382L 355.065 16.4382L 355.065 57L 351.372 57L 351.372 16.4382L 336.42 16.4382L 336.42 13.2857L 370.046 13.2857L 370.046 16.4382ZM 419.543 13.2857L 419.543 43.1291C 419.523 46.0714 418.873 48.6334 417.592 50.8151C 416.311 52.9969 414.499 54.6782 412.157 55.8591C 409.836 57.02 407.163 57.6005 404.141 57.6005C 399.538 57.6005 395.845 56.3495 393.062 53.8475C 390.3 51.3255 388.869 47.8428 388.769 43.3993L 388.769 13.2857L 392.432 13.2857L 392.432 42.8589C 392.432 46.5418 393.483 49.404 395.584 51.4456C 397.686 53.4672 400.538 54.478 404.141 54.478C 407.744 54.478 410.586 53.4572 412.668 51.4156C 414.769 49.374 415.82 46.5318 415.82 42.8889L 415.82 13.2857L 419.543 13.2857ZM 458.472 38.8057L 445.772 38.8057L 445.772 57L 442.049 57L 442.049 13.2857L 456.25 13.2857C 460.914 13.2857 464.557 14.4166 467.179 16.6784C 469.801 18.9401 471.112 22.1026 471.112 26.1658C 471.112 28.968 470.291 31.4399 468.65 33.5816C 467.008 35.7233 464.807 37.2045 462.045 38.0251L 472.973 56.6097L 472.973 57L 469.04 57L 458.472 38.8057ZM 445.772 35.6532L 457.091 35.6532C 460.193 35.6532 462.685 34.7726 464.567 33.0112C 466.448 31.2498 467.389 28.968 467.389 26.1658C 467.389 23.0834 466.408 20.6915 464.446 18.9902C 462.485 17.2888 459.733 16.4382 456.19 16.4382L 445.772 16.4382L 445.772 35.6532ZM 517.606 36.0436L 497.16 36.0436L 497.16 53.8775L 520.669 53.8775L 520.669 57L 493.467 57L 493.467 13.2857L 520.518 13.2857L 520.518 16.4382L 497.16 16.4382L 497.16 32.9211L 517.606 32.9211L 517.606 36.0436Z"/>
<path id="path9_fill" d="M 51.2559 0L 95.6449 87.0816L 6.86699 87.0816L 51.2559 0Z"/>
<path id="path10_stroke_2x" d="M 51.2559 0L 55.8211 -2.32703L 51.2559 -11.2829L 46.6908 -2.32703L 51.2559 0ZM 95.6449 87.0816L 95.6449 92.2057L 104.008 92.2057L 100.21 84.7546L 95.6449 87.0816ZM 6.86699 87.0816L 2.30185 84.7546L -1.49624 92.2057L 6.86699 92.2057L 6.86699 87.0816ZM 46.6908 2.32703L 91.0797 89.4087L 100.21 84.7546L 55.8211 -2.32703L 46.6908 2.32703ZM 95.6449 81.9576L 6.86699 81.9576L 6.86699 92.2057L 95.6449 92.2057L 95.6449 81.9576ZM 11.4321 89.4087L 55.8211 2.32703L 46.6908 -2.32703L 2.30185 84.7546L 11.4321 89.4087Z"/>
<path id="path11_fill" d="M 17.6157 40C 17.3638 39.2861 17.2028 38.2293 17.1328 36.8296C 16.251 37.9774 15.1242 38.8662 13.7524 39.4961C 12.3947 40.112 10.953 40.4199 9.42725 40.4199C 7.24365 40.4199 5.47298 39.811 4.11523 38.5933C 2.77148 37.3755 2.09961 35.8358 2.09961 33.9741C 2.09961 31.7625 3.01644 30.0129 4.8501 28.7251C 6.69775 27.4373 9.26628 26.7935 12.5557 26.7935L 17.1118 26.7935L 17.1118 24.2109C 17.1118 22.5872 16.6079 21.3135 15.6001 20.3896C 14.6063 19.4518 13.1506 18.9829 11.2329 18.9829C 9.48324 18.9829 8.0345 19.4308 6.88672 20.3267C 5.73893 21.2225 5.16504 22.3003 5.16504 23.5601L 2.64551 23.5391C 2.64551 21.7334 3.48535 20.1727 5.16504 18.8569C 6.84473 17.5272 8.90934 16.8623 11.3589 16.8623C 13.8924 16.8623 15.887 17.4992 17.3428 18.7729C 18.8125 20.0327 19.5684 21.7964 19.6104 24.064L 19.6104 34.814C 19.6104 37.0116 19.8413 38.6562 20.3032 39.748L 20.3032 40L 17.6157 40ZM 9.72119 38.1943C 11.4009 38.1943 12.8986 37.7884 14.2144 36.9766C 15.5441 36.1647 16.5099 35.0799 17.1118 33.7222L 17.1118 28.7251L 12.6187 28.7251C 10.1131 28.7531 8.15348 29.215 6.73975 30.1108C 5.32601 30.9927 4.61914 32.2104 4.61914 33.7642C 4.61914 35.0379 5.08805 36.0947 6.02588 36.9346C 6.9777 37.7744 8.20947 38.1943 9.72119 38.1943ZM 36.8271 19.4238C 36.2952 19.3258 35.7284 19.2769 35.1265 19.2769C 33.5588 19.2769 32.229 19.7178 31.1372 20.5996C 30.0594 21.4674 29.2896 22.7342 28.8276 24.3999L 28.8276 40L 26.3291 40L 26.3291 17.2822L 28.7856 17.2822L 28.8276 20.8936C 30.1574 18.2061 32.292 16.8623 35.2314 16.8623C 35.9313 16.8623 36.4842 16.9533 36.8901 17.1353L 36.8271 19.4238ZM 48.7949 38.2993C 50.5446 38.2993 52.0073 37.8094 53.1831 36.8296C 54.3729 35.8358 55.0168 34.555 55.1147 32.9873L 57.5293 32.9873C 57.4593 34.373 57.0254 35.6398 56.2275 36.7876C 55.4297 37.9214 54.3659 38.8102 53.0361 39.4541C 51.7204 40.098 50.3066 40.4199 48.7949 40.4199C 45.8135 40.4199 43.4479 39.3841 41.6982 37.3125C 39.9626 35.2409 39.0947 32.4554 39.0947 28.9561L 39.0947 28.2002C 39.0947 25.9606 39.4867 23.98 40.2705 22.2583C 41.0544 20.5366 42.1742 19.2069 43.6299 18.269C 45.0996 17.3312 46.8143 16.8623 48.7739 16.8623C 51.2655 16.8623 53.3161 17.6042 54.9258 19.0879C 56.5495 20.5716 57.4173 22.5243 57.5293 24.9458L 55.1147 24.9458C 55.0028 23.1681 54.3589 21.7334 53.1831 20.6416C 52.0213 19.5498 50.5516 19.0039 48.7739 19.0039C 46.5063 19.0039 44.7427 19.8228 43.4829 21.4604C 42.2371 23.0981 41.6143 25.3937 41.6143 28.3472L 41.6143 29.082C 41.6143 31.9795 42.2371 34.2401 43.4829 35.8638C 44.7427 37.4875 46.5133 38.2993 48.7949 38.2993ZM 65.0669 21.1245C 65.8927 19.7668 66.9495 18.717 68.2373 17.9751C 69.5251 17.2332 70.9318 16.8623 72.4575 16.8623C 74.8931 16.8623 76.7057 17.5482 77.8955 18.9199C 79.0853 20.2917 79.6872 22.3493 79.7012 25.0928L 79.7012 40L 77.2026 40L 77.2026 25.0718C 77.1886 23.0422 76.7547 21.5304 75.9009 20.5366C 75.061 19.5428 73.7103 19.0459 71.8486 19.0459C 70.2949 19.0459 68.9162 19.5358 67.7124 20.5156C 66.5226 21.4814 65.6408 22.7902 65.0669 24.4419L 65.0669 40L 62.5684 40L 62.5684 7.75L 65.0669 7.75L 65.0669 21.1245ZM 88.9814 40L 86.4619 40L 86.4619 17.2822L 88.9814 17.2822L 88.9814 40ZM 86.021 10.7104C 86.021 10.2345 86.175 9.83561 86.4829 9.51367C 86.7909 9.17773 87.2108 9.00977 87.7427 9.00977C 88.2746 9.00977 88.6945 9.17773 89.0024 9.51367C 89.3244 9.83561 89.4854 10.2345 89.4854 10.7104C 89.4854 11.1864 89.3244 11.5853 89.0024 11.9072C 88.6945 12.2292 88.2746 12.3901 87.7427 12.3901C 87.2108 12.3901 86.7909 12.2292 86.4829 11.9072C 86.175 11.5853 86.021 11.1864 86.021 10.7104ZM 99.7314 11.4663L 99.7314 17.2822L 104.435 17.2822L 104.435 19.3398L 99.7314 19.3398L 99.7314 34.478C 99.7314 35.7378 99.9554 36.6756 100.403 37.2915C 100.865 37.9074 101.628 38.2153 102.692 38.2153C 103.112 38.2153 103.791 38.1453 104.729 38.0054L 104.833 40.063C 104.176 40.3009 103.28 40.4199 102.146 40.4199C 100.424 40.4199 99.1715 39.923 98.3877 38.9292C 97.6038 37.9214 97.2119 36.4447 97.2119 34.499L 97.2119 19.3398L 93.0337 19.3398L 93.0337 17.2822L 97.2119 17.2822L 97.2119 11.4663L 99.7314 11.4663ZM 118.439 40.4199C 116.507 40.4199 114.758 39.944 113.19 38.9922C 111.636 38.0404 110.425 36.7176 109.558 35.0239C 108.69 33.3162 108.256 31.4056 108.256 29.292L 108.256 28.3892C 108.256 26.2056 108.676 24.2389 109.516 22.4893C 110.369 20.7396 111.552 19.3678 113.064 18.374C 114.576 17.3662 116.213 16.8623 117.977 16.8623C 120.735 16.8623 122.918 17.8071 124.528 19.6968C 126.152 21.5724 126.963 24.141 126.963 27.4023L 126.963 28.8091L 110.754 28.8091L 110.754 29.292C 110.754 31.8675 111.489 34.0161 112.959 35.7378C 114.443 37.4455 116.304 38.2993 118.544 38.2993C 119.888 38.2993 121.07 38.0544 122.092 37.5645C 123.128 37.0745 124.066 36.2907 124.906 35.2129L 126.48 36.4097C 124.633 39.0832 121.952 40.4199 118.439 40.4199ZM 117.977 19.0039C 116.087 19.0039 114.492 19.6968 113.19 21.0825C 111.902 22.4683 111.118 24.3299 110.838 26.6675L 124.465 26.6675L 124.465 26.3945C 124.395 24.2109 123.772 22.4333 122.596 21.0615C 121.42 19.6898 119.881 19.0039 117.977 19.0039ZM 140.254 38.2993C 142.004 38.2993 143.466 37.8094 144.642 36.8296C 145.832 35.8358 146.476 34.555 146.574 32.9873L 148.988 32.9873C 148.918 34.373 148.484 35.6398 147.687 36.7876C 146.889 37.9214 145.825 38.8102 144.495 39.4541C 143.179 40.098 141.766 40.4199 140.254 40.4199C 137.272 40.4199 134.907 39.3841 133.157 37.3125C 131.422 35.2409 130.554 32.4554 130.554 28.9561L 130.554 28.2002C 130.554 25.9606 130.946 23.98 131.729 22.2583C 132.513 20.5366 133.633 19.2069 135.089 18.269C 136.559 17.3312 138.273 16.8623 140.233 16.8623C 142.724 16.8623 144.775 17.6042 146.385 19.0879C 148.008 20.5716 148.876 22.5243 148.988 24.9458L 146.574 24.9458C 146.462 23.1681 145.818 21.7334 144.642 20.6416C 143.48 19.5498 142.011 19.0039 140.233 19.0039C 137.965 19.0039 136.202 19.8228 134.942 21.4604C 133.696 23.0981 133.073 25.3937 133.073 28.3472L 133.073 29.082C 133.073 31.9795 133.696 34.2401 134.942 35.8638C 136.202 37.4875 137.972 38.2993 140.254 38.2993ZM 157.933 11.4663L 157.933 17.2822L 162.636 17.2822L 162.636 19.3398L 157.933 19.3398L 157.933 34.478C 157.933 35.7378 158.157 36.6756 158.604 37.2915C 159.066 37.9074 159.829 38.2153 160.893 38.2153C 161.313 38.2153 161.992 38.1453 162.93 38.0054L 163.035 40.063C 162.377 40.3009 161.481 40.4199 160.347 40.4199C 158.625 40.4199 157.373 39.923 156.589 38.9292C 155.805 37.9214 155.413 36.4447 155.413 34.499L 155.413 19.3398L 151.235 19.3398L 151.235 17.2822L 155.413 17.2822L 155.413 11.4663L 157.933 11.4663ZM 182.456 37.1235C 180.944 39.3211 178.53 40.4199 175.212 40.4199C 172.791 40.4199 170.95 39.7201 169.69 38.3203C 168.431 36.9066 167.787 34.821 167.759 32.0635L 167.759 17.2822L 170.257 17.2822L 170.257 31.7485C 170.257 36.0737 172.007 38.2363 175.506 38.2363C 179.146 38.2363 181.448 36.7316 182.414 33.7222L 182.414 17.2822L 184.934 17.2822L 184.934 40L 182.498 40L 182.456 37.1235ZM 201.982 19.4238C 201.451 19.3258 200.884 19.2769 200.282 19.2769C 198.714 19.2769 197.384 19.7178 196.292 20.5996C 195.215 21.4674 194.445 22.7342 193.983 24.3999L 193.983 40L 191.484 40L 191.484 17.2822L 193.941 17.2822L 193.983 20.8936C 195.313 18.2061 197.447 16.8623 200.387 16.8623C 201.087 16.8623 201.639 16.9533 202.045 17.1353L 201.982 19.4238ZM 214.349 40.4199C 212.417 40.4199 210.668 39.944 209.1 38.9922C 207.546 38.0404 206.336 36.7176 205.468 35.0239C 204.6 33.3162 204.166 31.4056 204.166 29.292L 204.166 28.3892C 204.166 26.2056 204.586 24.2389 205.426 22.4893C 206.28 20.7396 207.462 19.3678 208.974 18.374C 210.486 17.3662 212.124 16.8623 213.887 16.8623C 216.645 16.8623 218.828 17.8071 220.438 19.6968C 222.062 21.5724 222.874 24.141 222.874 27.4023L 222.874 28.8091L 206.665 28.8091L 206.665 29.292C 206.665 31.8675 207.399 34.0161 208.869 35.7378C 210.353 37.4455 212.215 38.2993 214.454 38.2993C 215.798 38.2993 216.981 38.0544 218.002 37.5645C 219.038 37.0745 219.976 36.2907 220.816 35.2129L 222.391 36.4097C 220.543 39.0832 217.862 40.4199 214.349 40.4199ZM 213.887 19.0039C 211.998 19.0039 210.402 19.6968 209.1 21.0825C 207.812 22.4683 207.028 24.3299 206.749 26.6675L 220.375 26.6675L 220.375 26.3945C 220.305 24.2109 219.682 22.4333 218.506 21.0615C 217.331 19.6898 215.791 19.0039 213.887 19.0039ZM 230.579 40L 228.06 40L 228.06 7.75L 230.579 7.75L 230.579 40ZM 236.038 28.3052C 236.038 26.1216 236.458 24.1549 237.298 22.4053C 238.152 20.6556 239.348 19.2979 240.888 18.332C 242.442 17.3522 244.199 16.8623 246.158 16.8623C 249.182 16.8623 251.631 17.9261 253.507 20.0537C 255.382 22.1673 256.32 24.9738 256.32 28.4731L 256.32 28.998C 256.32 31.1956 255.893 33.1763 255.04 34.9399C 254.2 36.6896 253.01 38.0404 251.47 38.9922C 249.931 39.944 248.174 40.4199 246.2 40.4199C 243.191 40.4199 240.741 39.3631 238.852 37.2495C 236.976 35.1219 236.038 32.3084 236.038 28.8091L 236.038 28.3052ZM 238.558 28.998C 238.558 31.7135 239.257 33.9461 240.657 35.6958C 242.071 37.4315 243.919 38.2993 246.2 38.2993C 248.468 38.2993 250.301 37.4315 251.701 35.6958C 253.115 33.9461 253.822 31.6436 253.822 28.7881L 253.822 28.3052C 253.822 26.5695 253.5 24.9808 252.856 23.5391C 252.212 22.0973 251.309 20.9845 250.147 20.2007C 248.986 19.4028 247.656 19.0039 246.158 19.0039C 243.919 19.0039 242.092 19.8857 240.678 21.6494C 239.264 23.3991 238.558 25.6947 238.558 28.5361L 238.558 28.998ZM 268.267 36.5356L 275.175 17.2822L 277.757 17.2822L 269.275 40L 267.238 40L 258.714 17.2822L 261.296 17.2822L 268.267 36.5356ZM 290.397 40.4199C 288.465 40.4199 286.716 39.944 285.148 38.9922C 283.594 38.0404 282.383 36.7176 281.516 35.0239C 280.648 33.3162 280.214 31.4056 280.214 29.292L 280.214 28.3892C 280.214 26.2056 280.634 24.2389 281.474 22.4893C 282.327 20.7396 283.51 19.3678 285.022 18.374C 286.534 17.3662 288.171 16.8623 289.935 16.8623C 292.693 16.8623 294.876 17.8071 296.486 19.6968C 298.11 21.5724 298.921 24.141 298.921 27.4023L 298.921 28.8091L 282.712 28.8091L 282.712 29.292C 282.712 31.8675 283.447 34.0161 284.917 35.7378C 286.401 37.4455 288.262 38.2993 290.502 38.2993C 291.846 38.2993 293.028 38.0544 294.05 37.5645C 295.086 37.0745 296.024 36.2907 296.864 35.2129L 298.438 36.4097C 296.591 39.0832 293.91 40.4199 290.397 40.4199ZM 289.935 19.0039C 288.045 19.0039 286.45 19.6968 285.148 21.0825C 283.86 22.4683 283.076 24.3299 282.796 26.6675L 296.423 26.6675L 296.423 26.3945C 296.353 24.2109 295.73 22.4333 294.554 21.0615C 293.378 19.6898 291.839 19.0039 289.935 19.0039ZM 314.312 19.4238C 313.78 19.3258 313.213 19.2769 312.611 19.2769C 311.043 19.2769 309.713 19.7178 308.622 20.5996C 307.544 21.4674 306.774 22.7342 306.312 24.3999L 306.312 40L 303.813 40L 303.813 17.2822L 306.27 17.2822L 306.312 20.8936C 307.642 18.2061 309.776 16.8623 312.716 16.8623C 313.416 16.8623 313.969 16.9533 314.375 17.1353L 314.312 19.4238ZM 315.466 38.4883C 315.466 37.9984 315.62 37.5854 315.928 37.2495C 316.25 36.8996 316.691 36.7246 317.251 36.7246C 317.811 36.7246 318.252 36.8996 318.574 37.2495C 318.896 37.5854 319.057 37.9984 319.057 38.4883C 319.057 38.9782 318.896 39.3841 318.574 39.7061C 318.252 40.014 317.811 40.168 317.251 40.168C 316.691 40.168 316.25 40.014 315.928 39.7061C 315.62 39.3841 315.466 38.9782 315.466 38.4883ZM 334.384 38.2993C 336.133 38.2993 337.596 37.8094 338.772 36.8296C 339.962 35.8358 340.606 34.555 340.704 32.9873L 343.118 32.9873C 343.048 34.373 342.614 35.6398 341.816 36.7876C 341.019 37.9214 339.955 38.8102 338.625 39.4541C 337.309 40.098 335.896 40.4199 334.384 40.4199C 331.402 40.4199 329.037 39.3841 327.287 37.3125C 325.551 35.2409 324.684 32.4554 324.684 28.9561L 324.684 28.2002C 324.684 25.9606 325.076 23.98 325.859 22.2583C 326.643 20.5366 327.763 19.2069 329.219 18.269C 330.688 17.3312 332.403 16.8623 334.363 16.8623C 336.854 16.8623 338.905 17.6042 340.515 19.0879C 342.138 20.5716 343.006 22.5243 343.118 24.9458L 340.704 24.9458C 340.592 23.1681 339.948 21.7334 338.772 20.6416C 337.61 19.5498 336.14 19.0039 334.363 19.0039C 332.095 19.0039 330.332 19.8228 329.072 21.4604C 327.826 23.0981 327.203 25.3937 327.203 28.3472L 327.203 29.082C 327.203 31.9795 327.826 34.2401 329.072 35.8638C 330.332 37.4875 332.102 38.2993 334.384 38.2993ZM 346.771 28.3052C 346.771 26.1216 347.191 24.1549 348.031 22.4053C 348.885 20.6556 350.082 19.2979 351.622 18.332C 353.175 17.3522 354.932 16.8623 356.892 16.8623C 359.915 16.8623 362.365 17.9261 364.24 20.0537C 366.116 22.1673 367.054 24.9738 367.054 28.4731L 367.054 28.998C 367.054 31.1956 366.627 33.1763 365.773 34.9399C 364.933 36.6896 363.743 38.0404 362.204 38.9922C 360.664 39.944 358.907 40.4199 356.934 40.4199C 353.924 40.4199 351.475 39.3631 349.585 37.2495C 347.709 35.1219 346.771 32.3084 346.771 28.8091L 346.771 28.3052ZM 349.291 28.998C 349.291 31.7135 349.991 33.9461 351.391 35.6958C 352.804 37.4315 354.652 38.2993 356.934 38.2993C 359.201 38.2993 361.035 37.4315 362.435 35.6958C 363.848 33.9461 364.555 31.6436 364.555 28.7881L 364.555 28.3052C 364.555 26.5695 364.233 24.9808 363.589 23.5391C 362.945 22.0973 362.043 20.9845 360.881 20.2007C 359.719 19.4028 358.389 19.0039 356.892 19.0039C 354.652 19.0039 352.825 19.8857 351.412 21.6494C 349.998 23.3991 349.291 25.6947 349.291 28.5361L 349.291 28.998ZM 374.549 17.2822L 374.633 20.9775C 375.473 19.6058 376.523 18.577 377.783 17.8911C 379.042 17.2052 380.442 16.8623 381.982 16.8623C 385.565 16.8623 387.84 18.332 388.806 21.2715C 389.618 19.8577 390.702 18.7729 392.06 18.0171C 393.418 17.2472 394.916 16.8623 396.553 16.8623C 401.424 16.8623 403.909 19.5218 404.007 24.8408L 404.007 40L 401.487 40L 401.487 25.0298C 401.473 23.0002 401.032 21.4954 400.165 20.5156C 399.311 19.5358 397.911 19.0459 395.965 19.0459C 394.16 19.0739 392.634 19.6618 391.388 20.8096C 390.142 21.9434 389.45 23.3291 389.31 24.9668L 389.31 40L 386.79 40L 386.79 24.8408C 386.776 22.8952 386.314 21.4465 385.404 20.4946C 384.508 19.5288 383.123 19.0459 381.247 19.0459C 379.665 19.0459 378.308 19.5008 377.174 20.4106C 376.04 21.3065 375.2 22.6432 374.654 24.4209L 374.654 40L 372.135 40L 372.135 17.2822L 374.549 17.2822Z"/>
</defs>
</svg>
