<svg width="790" height="140" viewBox="0 0 790 140" version="1.1" xmlns="http://www.w3.org/2000/svg" xmlns:xlink="http://www.w3.org/1999/xlink">
<title>Group</title>
<desc>Created using Figma</desc>
<g id="Canvas" transform="matrix(2 0 0 2 2874 2252)">
<rect x="-1437" y="-1126" width="395" height="70" fill="#E5E5E5"/>
<g id="Rectangle">
<use xlink:href="#path0_fill" transform="translate(-1559 -1264)" fill="#FFFFFF"/>
</g>
<g id="Group">
<g id="RCHITECTURE LOVER">
<use xlink:href="#path1_fill" transform="translate(-1347 -1133)"/>
</g>
<g id="Polygon">
<mask id="mask0_outline_ins">
<use xlink:href="#path2_fill" fill="white" transform="translate(-1442 -1124.74)"/>
</mask>
<g mask="url(#mask0_outline_ins)">
<use xlink:href="#path3_stroke_2x" transform="translate(-1442 -1124.74)"/>
</g>
</g>
</g>
</g>
<defs>
<path id="path0_fill" d="M 0 0L 1920 0L 1920 1259L 0 1259L 0 0Z"/>
<path id="path1_fill" d="M 12.7969 22.3477L 5.36133 22.3477L 5.36133 33L 3.18164 33L 3.18164 7.40625L 11.4961 7.40625C 14.2266 7.40625 16.3594 8.06836 17.8945 9.39258C 19.4297 10.7168 20.1973 12.5684 20.1973 14.9473C 20.1973 16.5879 19.7168 18.0352 18.7559 19.2891C 17.7949 20.543 16.5059 21.4102 14.8887 21.8906L 21.2871 32.7715L 21.2871 33L 18.9844 33L 12.7969 22.3477ZM 5.36133 20.502L 11.9883 20.502C 13.8047 20.502 15.2637 19.9863 16.3652 18.9551C 17.4668 17.9238 18.0176 16.5879 18.0176 14.9473C 18.0176 13.1426 17.4434 11.7422 16.2949 10.7461C 15.1465 9.75 13.5352 9.25195 11.4609 9.25195L 5.36133 9.25195L 5.36133 20.502ZM 51.409 25.0195C 51.116 27.7148 50.1492 29.7773 48.5086 31.207C 46.8797 32.6367 44.7059 33.3516 41.9871 33.3516C 40.0887 33.3516 38.407 32.877 36.9422 31.9277C 35.4891 30.9785 34.3641 29.6367 33.5672 27.9023C 32.7703 26.1562 32.366 24.1641 32.3543 21.9258L 32.3543 18.6035C 32.3543 16.3301 32.7527 14.3145 33.5496 12.5566C 34.3465 10.7988 35.4891 9.44531 36.9773 8.49609C 38.4773 7.53516 40.2 7.05469 42.1453 7.05469C 44.8875 7.05469 47.0496 7.79883 48.6316 9.28711C 50.2254 10.7637 51.1512 12.8086 51.409 15.4219L 49.2293 15.4219C 48.6902 11.0742 46.3289 8.90039 42.1453 8.90039C 39.825 8.90039 37.9734 9.76758 36.5906 11.502C 35.2195 13.2363 34.534 15.6328 34.534 18.6914L 34.534 21.8203C 34.534 24.7734 35.202 27.1289 36.5379 28.8867C 37.8855 30.6445 39.702 31.5234 41.9871 31.5234C 44.2488 31.5234 45.9539 30.9844 47.1023 29.9062C 48.2508 28.8164 48.9598 27.1875 49.2293 25.0195L 51.409 25.0195ZM 82.8316 33L 80.652 33L 80.652 20.7305L 66.027 20.7305L 66.027 33L 63.8648 33L 63.8648 7.40625L 66.027 7.40625L 66.027 18.9023L 80.652 18.9023L 80.652 7.40625L 82.8316 7.40625L 82.8316 33ZM 99.1898 33L 97.0277 33L 97.0277 7.40625L 99.1898 7.40625L 99.1898 33ZM 130.191 9.25195L 121.419 9.25195L 121.419 33L 119.257 33L 119.257 9.25195L 110.503 9.25195L 110.503 7.40625L 130.191 7.40625L 130.191 9.25195ZM 155.672 20.7305L 143.701 20.7305L 143.701 31.1719L 157.465 31.1719L 157.465 33L 141.539 33L 141.539 7.40625L 157.377 7.40625L 157.377 9.25195L 143.701 9.25195L 143.701 18.9023L 155.672 18.9023L 155.672 20.7305ZM 187.358 25.0195C 187.065 27.7148 186.098 29.7773 184.458 31.207C 182.829 32.6367 180.655 33.3516 177.936 33.3516C 176.038 33.3516 174.356 32.877 172.891 31.9277C 171.438 30.9785 170.313 29.6367 169.516 27.9023C 168.72 26.1562 168.315 24.1641 168.304 21.9258L 168.304 18.6035C 168.304 16.3301 168.702 14.3145 169.499 12.5566C 170.296 10.7988 171.438 9.44531 172.927 8.49609C 174.427 7.53516 176.149 7.05469 178.095 7.05469C 180.837 7.05469 182.999 7.79883 184.581 9.28711C 186.175 10.7637 187.1 12.8086 187.358 15.4219L 185.179 15.4219C 184.639 11.0742 182.278 8.90039 178.095 8.90039C 175.774 8.90039 173.923 9.76758 172.54 11.502C 171.169 13.2363 170.483 15.6328 170.483 18.6914L 170.483 21.8203C 170.483 24.7734 171.151 27.1289 172.487 28.8867C 173.835 30.6445 175.651 31.5234 177.936 31.5234C 180.198 31.5234 181.903 30.9844 183.052 29.9062C 184.2 28.8164 184.909 27.1875 185.179 25.0195L 187.358 25.0195ZM 216.654 9.25195L 207.882 9.25195L 207.882 33L 205.72 33L 205.72 9.25195L 196.966 9.25195L 196.966 7.40625L 216.654 7.40625L 216.654 9.25195ZM 245.633 7.40625L 245.633 24.8789C 245.621 26.6016 245.241 28.1016 244.491 29.3789C 243.741 30.6563 242.68 31.6406 241.309 32.332C 239.95 33.0117 238.385 33.3516 236.616 33.3516C 233.92 33.3516 231.758 32.6191 230.129 31.1543C 228.512 29.6777 227.674 27.6387 227.616 25.0371L 227.616 7.40625L 229.76 7.40625L 229.76 24.7207C 229.76 26.877 230.375 28.5527 231.606 29.748C 232.836 30.9316 234.506 31.5234 236.616 31.5234C 238.725 31.5234 240.389 30.9258 241.608 29.7305C 242.838 28.5352 243.454 26.8711 243.454 24.7383L 243.454 7.40625L 245.633 7.40625ZM 268.425 22.3477L 260.989 22.3477L 260.989 33L 258.81 33L 258.81 7.40625L 267.124 7.40625C 269.855 7.40625 271.988 8.06836 273.523 9.39258C 275.058 10.7168 275.825 12.5684 275.825 14.9473C 275.825 16.5879 275.345 18.0352 274.384 19.2891C 273.423 20.543 272.134 21.4102 270.517 21.8906L 276.915 32.7715L 276.915 33L 274.613 33L 268.425 22.3477ZM 260.989 20.502L 267.616 20.502C 269.433 20.502 270.892 19.9863 271.993 18.9551C 273.095 17.9238 273.646 16.5879 273.646 14.9473C 273.646 13.1426 273.071 11.7422 271.923 10.7461C 270.775 9.75 269.163 9.25195 267.089 9.25195L 260.989 9.25195L 260.989 20.502ZM 303.047 20.7305L 291.076 20.7305L 291.076 31.1719L 304.84 31.1719L 304.84 33L 288.914 33L 288.914 7.40625L 304.752 7.40625L 304.752 9.25195L 291.076 9.25195L 291.076 18.9023L 303.047 18.9023L 303.047 20.7305ZM 5.41406 74.1719L 18.0527 74.1719L 18.0527 76L 3.23438 76L 3.23438 50.4062L 5.41406 50.4062L 5.41406 74.1719ZM 47.1727 64.5918C 47.1727 66.9473 46.7625 69.0156 45.9422 70.7969C 45.1336 72.5781 43.9734 73.9492 42.4617 74.9102C 40.95 75.8711 39.2039 76.3516 37.2234 76.3516C 34.2352 76.3516 31.8211 75.2852 29.9813 73.1523C 28.1414 71.0078 27.2215 68.1191 27.2215 64.4863L 27.2215 61.8496C 27.2215 59.5176 27.6316 57.4551 28.452 55.6621C 29.284 53.8574 30.4559 52.4746 31.9676 51.5137C 33.4793 50.541 35.2195 50.0547 37.1883 50.0547C 39.157 50.0547 40.8914 50.5293 42.3914 51.4785C 43.9031 52.4277 45.0691 53.7695 45.8895 55.5039C 46.7098 57.2383 47.1375 59.248 47.1727 61.5332L 47.1727 64.5918ZM 45.0105 61.8145C 45.0105 58.7324 44.3133 56.3184 42.9188 54.5723C 41.5242 52.8262 39.6141 51.9531 37.1883 51.9531C 34.8094 51.9531 32.9109 52.832 31.493 54.5898C 30.0867 56.3359 29.3836 58.7793 29.3836 61.9199L 29.3836 64.5918C 29.3836 67.627 30.0867 70.0352 31.493 71.8164C 32.8992 73.5859 34.8094 74.4707 37.2234 74.4707C 39.6727 74.4707 41.5828 73.5977 42.9539 71.8516C 44.325 70.0938 45.0105 67.6504 45.0105 64.5215L 45.0105 61.8145ZM 67.152 72.8359L 67.2926 73.3809L 67.4508 72.8359L 75.5016 50.4062L 77.8746 50.4062L 68.3473 76L 66.273 76L 56.7457 50.4062L 59.1012 50.4062L 67.152 72.8359ZM 102.987 63.7305L 91.016 63.7305L 91.016 74.1719L 104.78 74.1719L 104.78 76L 88.8539 76L 88.8539 50.4062L 104.692 50.4062L 104.692 52.252L 91.016 52.252L 91.016 61.9023L 102.987 61.9023L 102.987 63.7305ZM 126.113 65.3477L 118.677 65.3477L 118.677 76L 116.497 76L 116.497 50.4062L 124.812 50.4062C 127.542 50.4062 129.675 51.0684 131.21 52.3926C 132.745 53.7168 133.513 55.5684 133.513 57.9473C 133.513 59.5879 133.032 61.0352 132.071 62.2891C 131.111 63.543 129.821 64.4102 128.204 64.8906L 134.603 75.7715L 134.603 76L 132.3 76L 126.113 65.3477ZM 118.677 63.502L 125.304 63.502C 127.12 63.502 128.579 62.9863 129.681 61.9551C 130.782 60.9238 131.333 59.5879 131.333 57.9473C 131.333 56.1426 130.759 54.7422 129.611 53.7461C 128.462 52.75 126.851 52.252 124.777 52.252L 118.677 52.252L 118.677 63.502Z"/>
<path id="path2_fill" d="M 40.8424 0L 76.213 68.0522L 5.47185 68.0522L 40.8424 0Z"/>
<path id="path3_stroke_2x" d="M 40.8424 0L 43.5043 -1.38355L 40.8424 -6.50501L 38.1805 -1.38355L 40.8424 0ZM 76.213 68.0522L 76.213 71.0522L 81.1533 71.0522L 78.8749 66.6686L 76.213 68.0522ZM 5.47185 68.0522L 2.80993 66.6686L 0.531553 71.0522L 5.47185 71.0522L 5.47185 68.0522ZM 38.1805 1.38355L 73.5511 69.4357L 78.8749 66.6686L 43.5043 -1.38355L 38.1805 1.38355ZM 76.213 65.0522L 5.47185 65.0522L 5.47185 71.0522L 76.213 71.0522L 76.213 65.0522ZM 8.13376 69.4357L 43.5043 1.38355L 38.1805 -1.38355L 2.80993 66.6686L 8.13376 69.4357Z"/>
</defs>
</svg>
